HIERARCHY
ROOT Hips
{
	OFFSET -14.64140 90.27770 -84.91600
	CHANNELS 6 Xposition Yposition Zposition Zrotation Xrotation Yrotation
	JOINT Spine
	{
		OFFSET 0.00000 13.20850 -1.60436
		CHANNELS 3 Zrotation Xrotation Yrotation
		JOINT Spine1
		{
			OFFSET 0.00000 8.61716 0.00000
			CHANNELS 3 Zrotation Xrotation Yrotation
			JOINT Spine2
			{
				OFFSET 0.00000 8.61717 0.00000
				CHANNELS 3 Zrotation Xrotation Yrotation
				JOINT Spine3
				{
					OFFSET 0.00000 8.61717 0.00000
					CHANNELS 3 Zrotation Xrotation Yrotation
					JOINT Neck
					{
						OFFSET 0.00000 11.07920 1.10792
						CHANNELS 3 Zrotation Xrotation Yrotation
						JOINT Neck1
						{
							OFFSET 0.00000 7.08032 0.00000
							CHANNELS 3 Zrotation Xrotation Yrotation
							JOINT Head
							{
								OFFSET 0.00000 7.08031 0.00000
								CHANNELS 3 Zrotation Xrotation Yrotation
								End site
								{
									OFFSET 0.00000 0.00000 0.00000
								}
							}
						}
					}
					JOINT RightShoulder
					{
						OFFSET -0.01000 7.91373 5.19711
						CHANNELS 3 Zrotation Xrotation Yrotation
						JOINT RightArm
						{
							OFFSET -18.41580 0.00000 0.00000
							CHANNELS 3 Zrotation Xrotation Yrotation
							JOINT RightForeArm
							{
								OFFSET -29.11090 0.00000 0.00000
								CHANNELS 3 Zrotation Xrotation Yrotation
								JOINT RightHand
								{
									OFFSET -24.65040 0.00000 0.00000
									CHANNELS 3 Zrotation Xrotation Yrotation
									JOINT RightHandThumb1
									{
										OFFSET -5.35114 -0.85590 3.97906
										CHANNELS 3 Zrotation Xrotation Yrotation
										JOINT RightHandThumb2
										{
											OFFSET -4.52789 0.00000 0.00000
											CHANNELS 3 Zrotation Xrotation Yrotation
											JOINT RightHandThumb3
											{
												OFFSET -2.46976 0.00000 0.00000
												CHANNELS 3 Zrotation Xrotation Yrotation
												End site
												{
													OFFSET 0.00000 0.00000 0.00000
												}
											}
										}
									}
									JOINT RightHandIndex1
									{
										OFFSET -14.26970 0.00000 2.88139
										CHANNELS 3 Zrotation Xrotation Yrotation
										JOINT RightHandIndex2
										{
											OFFSET -5.48836 0.00000 0.00000
											CHANNELS 3 Zrotation Xrotation Yrotation
											JOINT RightHandIndex3
											{
												OFFSET -3.01859 0.00000 0.00000
												CHANNELS 3 Zrotation Xrotation Yrotation
												End site
												{
													OFFSET 0.00000 0.00000 0.00000
												}
											}
										}
									}
									JOINT RightHandMiddle1
									{
										OFFSET -14.26970 0.00000 -0.09147
										CHANNELS 3 Zrotation Xrotation Yrotation
										JOINT RightHandMiddle2
										{
											OFFSET -6.17441 0.00000 0.00000
											CHANNELS 3 Zrotation Xrotation Yrotation
											JOINT RightHandMiddle3
											{
												OFFSET -3.56743 0.00000 0.00000
												CHANNELS 3 Zrotation Xrotation Yrotation
												End site
												{
													OFFSET 0.00000 0.00000 0.00000
												}
											}
										}
									}
									JOINT RightHandRing1
									{
										OFFSET -12.69180 0.00000 -3.06433
										CHANNELS 3 Zrotation Xrotation Yrotation
										JOINT RightHandRing2
										{
											OFFSET -5.62556 0.00000 0.00000
											CHANNELS 3 Zrotation Xrotation Yrotation
											JOINT RightHandRing3
											{
												OFFSET -3.56744 0.00000 0.00000
												CHANNELS 3 Zrotation Xrotation Yrotation
												End site
												{
													OFFSET 0.00000 0.00000 0.00000
												}
											}
										}
									}
									JOINT RightHandPinky1
									{
										OFFSET -11.11390 0.00000 -6.03719
										CHANNELS 3 Zrotation Xrotation Yrotation
										JOINT RightHandPinky2
										{
											OFFSET -4.52789 0.00000 0.00000
											CHANNELS 3 Zrotation Xrotation Yrotation
											JOINT RightHandPinky3
											{
												OFFSET -2.46976 0.00000 0.00000
												CHANNELS 3 Zrotation Xrotation Yrotation
												End site
												{
													OFFSET 0.00000 0.00000 0.00000
												}
											}
										}
									}
								}
							}
						}
					}
					JOINT LeftShoulder
					{
						OFFSET 0.01000 7.91373 5.19711
						CHANNELS 3 Zrotation Xrotation Yrotation
						JOINT LeftArm
						{
							OFFSET 18.41580 0.00000 0.00000
							CHANNELS 3 Zrotation Xrotation Yrotation
							JOINT LeftForeArm
							{
								OFFSET 29.11090 0.00000 0.00000
								CHANNELS 3 Zrotation Xrotation Yrotation
								JOINT LeftHand
								{
									OFFSET 24.65040 0.00000 0.00000
									CHANNELS 3 Zrotation Xrotation Yrotation
									JOINT LeftHandThumb1
									{
										OFFSET 5.35114 -0.85590 3.97906
										CHANNELS 3 Zrotation Xrotation Yrotation
										JOINT LeftHandThumb2
										{
											OFFSET 4.52789 0.00000 0.00000
											CHANNELS 3 Zrotation Xrotation Yrotation
											JOINT LeftHandThumb3
											{
												OFFSET 2.46977 0.00000 0.00000
												CHANNELS 3 Zrotation Xrotation Yrotation
												End site
												{
													OFFSET 0.00000 0.00000 0.00000
												}
											}
										}
									}
									JOINT LeftHandIndex1
									{
										OFFSET 14.26970 0.00000 2.88139
										CHANNELS 3 Zrotation Xrotation Yrotation
										JOINT LeftHandIndex2
										{
											OFFSET 5.48836 0.00000 0.00000
											CHANNELS 3 Zrotation Xrotation Yrotation
											JOINT LeftHandIndex3
											{
												OFFSET 3.01859 0.00000 0.00000
												CHANNELS 3 Zrotation Xrotation Yrotation
												End site
												{
													OFFSET 0.00000 0.00000 0.00000
												}
											}
										}
									}
									JOINT LeftHandMiddle1
									{
										OFFSET 14.26970 0.00000 -0.09147
										CHANNELS 3 Zrotation Xrotation Yrotation
										JOINT LeftHandMiddle2
										{
											OFFSET 6.17440 0.00000 0.00000
											CHANNELS 3 Zrotation Xrotation Yrotation
											JOINT LeftHandMiddle3
											{
												OFFSET 3.56744 0.00000 0.00000
												CHANNELS 3 Zrotation Xrotation Yrotation
												End site
												{
													OFFSET 0.00000 0.00000 0.00000
												}
											}
										}
									}
									JOINT LeftHandRing1
									{
										OFFSET 12.69180 0.00000 -3.06433
										CHANNELS 3 Zrotation Xrotation Yrotation
										JOINT LeftHandRing2
										{
											OFFSET 5.62556 0.00000 0.00000
											CHANNELS 3 Zrotation Xrotation Yrotation
											JOINT LeftHandRing3
											{
												OFFSET 3.56744 0.00000 0.00000
												CHANNELS 3 Zrotation Xrotation Yrotation
												End site
												{
													OFFSET 0.00000 0.00000 0.00000
												}
											}
										}
									}
									JOINT LeftHandPinky1
									{
										OFFSET 11.11390 0.00000 -6.03719
										CHANNELS 3 Zrotation Xrotation Yrotation
										JOINT LeftHandPinky2
										{
											OFFSET 4.52789 0.00000 0.00000
											CHANNELS 3 Zrotation Xrotation Yrotation
											JOINT LeftHandPinky3
											{
												OFFSET 2.46976 0.00000 0.00000
												CHANNELS 3 Zrotation Xrotation Yrotation
												End site
												{
													OFFSET 0.00000 0.00000 0.00000
												}
											}
										}
									}
								}
							}
						}
					}
					JOINT pCube4
					{
						OFFSET 0.00000 10.91090 1.10792
						CHANNELS 3 Zrotation Xrotation Yrotation
						End site
						{
							OFFSET 0.00000 0.00000 0.00000
						}
					}
				}
			}
		}
	}
	JOINT RightUpLeg
	{
		OFFSET -9.98441 0.00000 0.00000
		CHANNELS 3 Zrotation Xrotation Yrotation
		JOINT RightLeg
		{
			OFFSET 0.00000 -42.11790 0.00000
			CHANNELS 3 Zrotation Xrotation Yrotation
			JOINT RightFoot
			{
				OFFSET 0.00000 -45.00020 -0.00001
				CHANNELS 3 Zrotation Xrotation Yrotation
				JOINT RightForeFoot
				{
					OFFSET 0.00000 -3.74820 0.00000
					CHANNELS 3 Zrotation Xrotation Yrotation
					JOINT RightToeBase
					{
						OFFSET 0.00000 0.06325 14.43120
						CHANNELS 3 Zrotation Xrotation Yrotation
						End site
						{
							OFFSET 0.00000 0.00000 0.00000
						}
					}
				}
			}
		}
	}
	JOINT LeftUpLeg
	{
		OFFSET 9.98441 0.00000 0.00000
		CHANNELS 3 Zrotation Xrotation Yrotation
		JOINT LeftLeg
		{
			OFFSET 0.00000 -42.11800 0.00000
			CHANNELS 3 Zrotation Xrotation Yrotation
			JOINT LeftFoot
			{
				OFFSET 0.00000 -45.00070 0.00000
				CHANNELS 3 Zrotation Xrotation Yrotation
				JOINT LeftForeFoot
				{
					OFFSET 0.00000 -3.74824 0.00000
					CHANNELS 3 Zrotation Xrotation Yrotation
					JOINT LeftToeBase
					{
						OFFSET 0.00000 0.06325 14.43110
						CHANNELS 3 Zrotation Xrotation Yrotation
						End site
						{
							OFFSET 0.00000 0.00000 0.00000
						}
					}
				}
			}
		}
	}
}
MOTION
Frames: 4
Frame Time: 0.050000
0.04807390524936362 0.0052931466247572185 0.001318124277166005 0.015191201990942597 -0.037363597281782755 0.03317357195722529 -3.3331242138850907 1.5291570532553034 -0.7171371321796157 -1.0378737611373128 3.5565847538529156 0.3489829308844626 -1.2837147695903521 -2.376615852019489 -2.034457555357509 -1.2369173582715656 -0.09613189615213492 -0.8814320188558258 -0.8737403209515597 15.687202425630275 1.9913567081891497 0.2103664038834388 1.1461195607938415 4.3810260281913385 -0.44861988526727004 -13.641281779344624 0.37892603774554134 -11.74111038559929 3.9807872389087104 -11.280948912659149 66.32018493457225 -11.268264495560839 46.288868915518385 24.329277379775483 -2.8052861173285324 97.66337733315302 10.375386797768726 -0.37025606804910816 -0.3499691713849492 4.538251262182076 -0.13811308683909387 -1.5903411530792557 -0.014571273172999546 0.02924835701800583 -56.25062778385751 0.0052068084245167675 -0.0030004983349468228 -56.229169899518865 -38.779363590786524 0.009284696110867928 0.018573364481815555 -0.03805047618279252 -0.02690024222738358 -0.0472952280450688 0.03227093212689283 0.010894326231994812 -0.04506515969332328 -36.66065287360943 -0.00036475655854515716 -0.03476500382905063 0.012420561268226979 0.037963767092397654 0.006465013188461609 0.02967570696828456 -0.01716650080469267 0.012894211482313364 -19.746731751378636 -0.04298765251496626 0.045535097463783876 -0.04429147520213478 0.004999136167124224 -0.03872347204534423 -0.00012790756278282362 0.023355243502733103 -0.027505300672122784 24.083244834808777 0.02762612979429587 -0.031021038013229956 28.881509953508914 -0.03132034395840812 0.026492882175388092 28.905121168446883 0.009379151519678526 0.02256945981995018 14.783387478443656 3.373765094102223 9.766719205835441 -62.79390310051708 5.267989986896015 -51.182950113785196 -53.49156935305211 0.8709005771945725 -94.46929401808276 -5.9279024049330555 0.4333237281802785 -0.8892297924307847 -0.4991845448026999 0.1058365114920929 -8.083559541134713 0.03641017578041053 0.022145507409894637 44.580418377812066 0.028704489312459842 -0.04750219743460212 44.54493973925949 12.460499347565191 0.009387614942440668 0.012959919272210171 -0.042220526573762504 -0.0164569005968238 -0.02802752436832425 0.016890017256009148 0.021077669490870775 -0.041141489408420266 11.132338722856144 -0.019850210248593722 0.01461132923786735 0.044756526415083715 0.00975382825572584 -0.0059622007154679045 0.0055517766573368234 0.03406817293659081 -0.012097890267305643 4.735426788070132 -0.014391108741121362 0.011074026033843581 0.02054752156398515 -0.014221957069982433 0.029880194982276037 0.034875846986173145 0.019818385542506717 -0.019463953139895677 -5.621562544950313 0.02354266196617354 -0.030134951796844646 -6.732567720976168 -0.04079213097495221 -0.010549157275197863 -6.714285995573068 -0.017106374778904275 -0.023445171460626472 0.04654092954714417 -0.017763834849733897 -0.0009030488635683831 8.007501689697074 3.523664050541633 -19.216258910820525 0.014163521901057758 10.346979161527754 -0.01185648247032801 -5.58191585364013 -15.638247465021836 3.21339076356338 -0.04256994371633262 0.003215870784410677 -0.03722384643396251 0.00837896838012898 4.709048021394928 0.02872769705588653 12.469999977297423 -8.233699297500575 6.895080216153242 -0.022741839765292322 46.35106111708367 0.05092139523828802 -4.305107605968212 -14.712803589258202 -3.8647833131595983 0.04577794468408668 -0.0015635463766480967 0.028896305978983627 0.033652887192419566 -10.728946475540134 0.04554603539909256 
0.014274933534100965 -0.018217165274972493 -0.042773799062882686 0.007066327435434261 -0.012067694290367997 -0.013078322027402708 -3.3670763658143312 1.3880502349725579 -0.7656258692602744 -1.0074055811098261 3.576719311559641 0.3343713423548711 -1.236288401250718 -2.4302323274986057 -2.1013077443878387 -1.2886431686987514 -0.0679606280581459 -0.8670882402269238 -0.8951302395667308 15.709424996195061 2.314818532695866 0.26742537114259013 1.292408844299241 5.145004370939061 -0.5685056275027942 -13.40592736637453 0.3928136969501981 -11.65530802848646 4.01206467526095 -11.343988022525252 65.72623860154395 -10.757904509158275 45.121509090931944 20.940992975134673 -3.288591558068573 97.9141579327297 10.10846888092078 -0.3584046377487589 -0.5510351319120926 4.479009979759695 -0.0785353317643076 -1.6426423069143243 0.02451408455957748 0.03683506136180783 -56.2354149393794 -0.031223801812605333 -0.038327462236456895 -56.259749893108165 -38.750573994642444 0.03060521985423262 -0.030680534737572852 0.03472509861065782 0.02708799458675699 -0.015556385839895043 0.03144120864478539 0.021767645158160442 0.017933006636226632 -36.707908209141586 -0.01604763786360567 0.011877178673852701 0.015580640926270851 -0.0032350267982923066 -0.0019082873531319677 -0.0035494651413439586 -0.01297298804352814 -0.011209247911063933 -19.764119113685684 0.030081270988374022 -0.024995606768423686 -0.042453638723261515 -0.017394252527100803 0.015018397182526148 0.010951847441810922 0.017698798512469617 0.022225856393515642 24.0927725396618 -0.021207830270025117 0.005404425048096825 28.87794727194805 0.026843994279975313 -0.02697879787755187 28.82791127020978 0.031192122943583308 -0.02929699774807864 14.763046110195294 3.3914031085438494 9.867907419385412 -62.65242270117735 5.759264619940391 -50.6502671581323 -54.204938959659096 1.3354303785870048 -93.48618717234316 -6.113382971369556 0.021958259807875725 -0.47618003894983263 -0.4624491464606256 0.09951138901856699 -8.107222787137918 0.013176349262058077 0.0020527761315839547 44.565913477447744 -0.041432912174643975 0.04256832573303642 44.61635083430424 12.460552333152535 -0.03727822786135687 0.03279937715162044 -0.04726060838792496 -0.03913135760951843 -0.005975109073336598 -0.0131926377374859 -0.004098817183818037 0.021044166114588463 11.093233330553149 -0.013270342218974423 -0.029256156202889377 0.001282062696547846 -0.0013311159195790046 -0.017601006735978426 0.02581286471041846 -0.02106734346024138 0.010574742569427609 4.73727109792061 0.00713513494805969 -0.04171431530511969 -0.039449409627128285 -0.013962110348050139 0.03869094116457884 0.03967652907817597 0.02149191901955853 -0.01633392027143033 -5.610783028348502 -0.020859851528696925 -0.01721428729084203 -6.7385548103560735 -0.012039812213611297 -0.023948667136744897 -6.722481224445184 -0.04229500729411551 0.011276035740533197 0.04497267406833336 0.045340298791679154 -0.028103203758780445 8.05023965031582 3.502558514073377 -19.21091239411704 -0.008708089335796828 10.405653600054846 -0.014887050083513698 -5.614857728320864 -15.628877867155786 3.22009321522775 -0.0021048331798512528 0.003614239745564931 -0.026924951496304604 0.023685541802105203 4.668516431919649 -0.010788484412077559 12.464722607889486 -8.266075272110204 6.866337681720408 0.010170623196221567 46.409232978391806 0.02330894322507098 -4.3687208273394305 -14.785986992356735 -3.8437961663275595 0.0038518443477203825 -0.027699126877996503 -0.015561208364443623 -0.03829621119757554 -10.740856583491912 -0.02595292436511168 
-0.028288498530071274 0.041087058723486 0.017157967523821153 0.005105398745182829 0.008257659918237579 -0.027971558290177712 -3.4266050799768886 1.2858135794608578 -0.6871013718044912 -1.0387583667389155 3.508224076377931 0.358242866971423 -1.3011453270550069 -2.387064053496902 -2.1529305335605207 -1.339671064882379 -0.012375807575025148 -0.9362881340378659 -0.9522218452646586 15.6856754569444 2.5783119797294662 0.22945091838292422 1.3763009685377794 5.809364314706234 -0.6777796516860572 -13.207338463841307 0.5295873445968803 -11.52457393645339 3.8962994251398206 -11.513458336159257 65.00943694891878 -9.725100327589171 43.23052328665265 17.51273330421079 -3.577309472114464 98.17601202679235 9.868290504372409 -0.35941878018160967 -0.6989336684438963 4.482461056503041 -0.118211343209916 -1.5713451031207444 -0.02704066629071082 -0.0023833387771881594 -56.22604815026682 -0.022591692140698047 -0.04667130578602938 -56.19174021127562 -38.795524202854516 -0.04289516477571967 0.03390674788973519 -0.0313643615226803 -0.01947360860451177 0.01683577554724739 0.04657728677258396 0.03993783739740382 0.001716036143621951 -36.720618933832974 -0.016208071956550812 0.034536964600462426 0.018424419814128342 0.014955113842157306 -0.03986106750033824 -0.0009634867887397091 -0.0011598869728798708 -0.0018925830282697969 -19.737482282320112 -0.017108863043787167 0.03550245897762818 -0.030041602471413124 0.022932426539696165 0.0037003009276438104 -0.04327328806173628 0.011385950332114874 -0.026342806949249047 24.044979865884883 0.037155835988990915 -0.03465712038422354 28.90902063569394 0.0329580683116896 -0.034985711642967265 28.883960351319995 -0.04073299805277626 -0.03443861777899181 14.639671962765936 3.3457596517232413 9.926471259319708 -62.60321781529942 6.408881577748542 -49.66616077079458 -56.15450390406512 2.391579020926539 -92.3417944499156 -6.019422451243199 -0.33091951698931077 0.03132306459821442 -0.4801545099157382 0.054609742678298864 -8.147469607916497 0.010981851583951046 0.007779750813395008 44.53672672541721 0.0022034228084454816 0.02430957877558481 44.59703057842172 12.505198266717773 -0.025703518928773234 0.0014262167102458275 -0.028450907568606635 0.012444708561370225 0.0026650124225923474 0.04026304684569864 -0.015643248089483457 -0.014056952472165459 11.118245804887845 0.0226167176134617 0.005430188775699136 -0.018511239749971244 -0.005934419082829274 0.038071077902549884 0.031598884832397846 -0.03720179188195223 -0.02029981085403428 4.7910395505448236 -0.029472922094876286 0.0461143012041248 -0.03675531168921793 -0.005762316659281127 -0.03797252167664596 0.01631645623785696 0.032300219861140185 -0.0011107951420371621 -5.585494816513199 0.028175789994700343 -0.0071754257399873796 -6.699765011343417 -0.021702651314337944 0.01689879904644689 -6.711332496509563 -0.00470498325365862 0.032779695415294 0.0053606176174369365 -0.03701755148153514 0.03188846511129097 8.061866651495833 3.490977785668861 -19.2391476219776 -0.03287854222051534 10.411404561819326 0.017428531095294686 -5.573195406031138 -15.705306571886906 3.2067005040747554 -0.02023805414962918 -0.044759686889639425 0.007389025066078734 0.02092750072335929 4.663182063363445 -0.0354044379629948 12.48391978534305 -8.235805835904184 6.931867621407704 -0.04123183006206706 46.329954411092245 0.03194659483244957 -4.345397756939122 -14.762898152926272 -3.8213109353539654 0.027334385117469436 -0.040937380655427104 -0.01263760388778258 -0.014288628547215989 -10.754997789380274 0.012563426082132019 
-0.027220977139778682 -0.0063888476750920496 0.011257318101987648 -0.023185318798979785 0.04496921024460943 -0.03872847027843886 -3.5032371563038747 1.1529568113143012 -0.7294950978574919 -1.07666204674595 3.503511463697535 0.3795884180059796 -1.306325922194993 -2.3813093824517195 -2.2811936036520115 -1.2814307076713143 0.03929160702363009 -0.9236753121385739 -1.026979468067896 15.677125114162894 2.850285095980662 0.2637102703980677 1.5601948307597522 6.397360091109587 -0.7095642776968708 -12.93758045641089 0.569340941629188 -11.391825352137696 3.9108178543850363 -11.711887522089187 64.10777145080874 -9.162832807568615 41.385433372031784 14.401359621396875 -3.99505055549411 98.67445987181473 9.701982633326532 -0.39343324907738525 -0.787194178793227 4.520352465355432 -0.13105829308505165 -1.5795402168930137 -0.0023807700800637065 -0.04017249639613583 -56.196060822945775 -0.04434597231140631 0.04451031041887432 -56.189880232937455 -38.799097915806655 -0.03794162763079933 0.022972108214082444 -0.018481348645637715 -0.022445544439362305 -0.04487278129608165 0.00827717557063059 0.02687001682230696 -0.018577562677494313 -36.646185303331535 0.016551433036577645 0.01269197184188416 0.02606935755904043 -0.02781983147882461 -0.03889399330729044 0.04582790385580412 0.007782761300304403 0.04674854259491164 -19.792197153813223 -0.01486796762004124 -0.03315011950927351 0.01641931691498999 -0.0310770665920315 -0.010735467207032329 0.028779289076244764 0.04110651104016619 0.017722849667865026 24.04241311042271 -0.021255874698835636 -0.0074307316621746965 28.901480436873985 0.008587469360262084 0.0013401842349243574 28.90275876226605 -0.012114076862243398 0.033245754531060365 14.505066220449137 3.2233759799944925 10.019436601657116 -62.41041809679302 7.066651440617232 -48.44154378259957 -58.60530210154394 3.7330353986297093 -91.79789513281855 -5.584131174556057 -0.5733805250016493 0.43121776045293864 -0.5176924907173555 0.0517783848333014 -8.10413465128037 0.0013962465077856057 -0.0076528584006131765 44.54426645278088 0.01563877218915106 0.027506035158488484 44.58354096453045 12.484812789613196 0.022108481651169465 0.01498720888451853 -0.013062400312469476 0.008124151065498186 0.015103882363499079 0.00546794285279473 -0.008451321870123613 0.02261204946849963 11.059222178353972 -0.007153095917187889 0.04295768994231377 0.003880516267711379 0.007628042255030621 0.012881692504861035 -0.002278570233642928 0.00663913380272593 0.03842396969727352 4.734512931642511 -0.02619967009262445 -0.013642252882703336 0.03657081495370789 -0.013731014355740865 -0.016535593342482984 0.046854330053006266 0.011054999526197585 0.0361012473088178 -5.633436339249319 -0.013474941435445533 -0.026580949594854193 -6.727277640726864 -0.01073862985715537 0.039449781070928794 -6.676912754838946 0.0063174185219500335 0.0002382535837306519 0.01463817684852578 0.02422974228331719 0.04751096594301201 8.084149416374625 3.5430135053224983 -19.235320416310266 0.021059437243547825 10.356509255264239 0.05035467290791672 -5.60796540918706 -15.681386144943273 3.1862228885736954 -0.019415905025594326 0.010479079545287755 0.023898258384755847 0.0003344251145623691 4.7174672077199284 -0.04717612641159892 12.499834476068699 -8.274392413279855 6.922576195712237 -0.04059506390912119 46.360169760038275 -0.01198963377207859 -4.3624339855526 -14.752556799240676 -3.7859351920472335 -0.01390660048234912 -0.011001155648456624 0.011956945080863585 -0.04596258673936469 -10.79499821458287 -0.016369290150699593 
